PathFileType	4	(X/Y/Z)	s09c0301.trc
DataRate	CameraRate	NumFrames	NumMarkers	Units	OrigDataRate	OrigDataStartFrame	OrigNumFrames
200	200	4	50	mm	200	1750	2000
Frame#	Time	racr			lacr			c7			jug			rlel			rdr			llel			ldr			s2			lic			ric			lasi			rasi			rpsi			lpsi			rgt			lgt			rth1			rth2			rth3			rth4			rlfc			rmfc			rsh1			rsh2			rsh3			rsh4			rlmal			rmmal			rcal			rtoe			rmt5			lth1			lth2			lth4			lth3			llfc			lmfc			llmal			lmmal			lcal			lmt5			lsh1			lsh2			lsh3			lsh4			ltoe			SBIKE			LBIKE			RBIKE			
		X1	Y1	Z1	X2	Y2	Z2	X3	Y3	Z3	X4	Y4	Z4	X5	Y5	Z5	X6	Y6	Z6	X7	Y7	Z7	X8	Y8	Z8	X9	Y9	Z9	X10	Y10	Z10	X11	Y11	Z11	X12	Y12	Z12	X13	Y13	Z13	X14	Y14	Z14	X15	Y15	Z15	X16	Y16	Z16	X17	Y17	Z17	X18	Y18	Z18	X19	Y19	Z19	X20	Y20	Z20	X21	Y21	Z21	X22	Y22	Z22	X23	Y23	Z23	X24	Y24	Z24	X25	Y25	Z25	X26	Y26	Z26	X27	Y27	Z27	X28	Y28	Z28	X29	Y29	Z29	X30	Y30	Z30	X31	Y31	Z31	X32	Y32	Z32	X33	Y33	Z33	X34	Y34	Z34	X35	Y35	Z35	X36	Y36	Z36	X37	Y37	Z37	X38	Y38	Z38	X39	Y39	Z39	X40	Y40	Z40	X41	Y41	Z41	X42	Y42	Z42	X43	Y43	Z43	X44	Y44	Z44	X45	Y45	Z45	X46	Y46	Z46	X47	Y47	Z47	X48	Y48	Z48	X49	Y49	Z49	X50	Y50	Z50	
1750	8.7500	711.996888	1361.589606	-35.252141	729.151266	1334.457584	-386.307359	724.129397	1408.398730	-207.784052	716.030836	1268.040233	-208.619473	632.943775	1105.606897	-2.950061	720.868077	869.621837	-55.697624	597.685276	1096.507134	-479.949124	718.455450	880.883569	-430.126600	250.710206	1184.621176	-239.751650	400.898814	1172.241928	-372.806202	383.085932	1144.508329	-85.106329	421.799317	1108.856653	-347.770883	417.861393	1086.277702	-108.363142	282.731724	1202.687546	-174.391892	283.706602	1223.500715	-283.400976	325.986707	1000.476582	-62.123989	351.330117	1059.809625	-436.514848	373.984065	871.702926	-71.165814	421.199074	798.417580	-80.673437	418.652662	710.016453	-93.028592	451.062962	807.435758	-100.364820	435.837174	619.409192	-123.724816	411.910246	597.512415	-215.268848	385.691991	531.754181	-84.089712	387.013813	442.449091	-92.934393	343.280330	366.196557	-88.380101	409.851645	438.157762	-126.303716	309.029268	268.361648	-83.913695	313.045337	276.453502	-159.347152	229.236366	263.428942	-118.702043	467.960100	145.814225	-129.039374	387.440065	164.580714	-62.939203	433.152322	950.620279	-444.813548	503.853308	903.448887	-438.329103	529.671232	924.267029	-419.532992	544.222479	822.676097	-442.767990	567.189404	727.940579	-427.473837	574.813513	708.640256	-329.676502	227.223509	591.137215	-415.609174	250.721326	586.682509	-343.827224	154.635268	621.731420	-374.475112	234.344676	466.127140	-430.841033	475.256714	689.737494	-444.321389	405.778566	639.554171	-429.248060	317.495663	630.125987	-423.928194	418.809725	616.857167	-400.133648	306.612164	411.253429	-359.312400	-64.250282	852.926220	-240.066094	21.247889	84.073350	-442.095909	21.214564	83.940512	-43.875430	
1751	8.7550	714.933193	1361.583006	-38.301699	726.014100	1334.876360	-390.503058	724.035932	1408.872785	-211.537234	716.175394	1268.460742	-212.014381	635.736174	1106.060029	-3.285097	721.271119	869.251171	-55.669436	593.836984	1095.941033	-481.161960	718.256308	881.835929	-430.141449	250.458565	1184.329637	-235.368167	398.588940	1174.351727	-370.974524	385.782311	1143.509765	-83.370856	420.309729	1110.843795	-347.281959	419.847105	1085.740237	-107.963240	283.247179	1202.269989	-169.914540	283.065802	1223.989114	-277.085388	327.390981	999.338769	-60.542721	349.108190	1062.445693	-433.712854	371.911966	870.545900	-70.255007	417.331280	796.060548	-79.872954	412.291584	707.641460	-91.953818	447.110795	804.221519	-99.916278	427.170399	616.961064	-122.967137	402.073369	595.147947	-214.661106	377.527015	529.542256	-83.728443	379.523452	440.266687	-92.370712	336.281143	363.447705	-87.835357	402.226480	436.258047	-125.808050	302.933643	266.316307	-83.543579	307.103247	273.219267	-159.000206	223.366098	262.782351	-118.793547	458.578902	138.544767	-129.033771	378.579811	159.548953	-62.921565	434.037465	955.490844	-442.801417	505.825996	909.922056	-436.710002	531.191094	931.244078	-417.785350	548.148204	830.388739	-442.347169	573.735662	735.052056	-426.897366	581.253599	715.893470	-328.925022	234.485380	595.539918	-415.640464	257.972324	591.780829	-344.112811	160.953866	625.178232	-374.684389	243.693870	471.224484	-430.985241	482.166822	696.300075	-443.635097	412.928279	645.687614	-428.844176	324.678278	635.875389	-423.724794	426.058486	622.750625	-399.868253	316.720701	417.554173	-359.104119	-64.273832	852.931216	-240.098375	21.246503	84.082271	-442.098401	21.210405	83.950114	-43.884283	
1752	8.7600	717.811856	1361.516193	-41.479200	722.736737	1335.298477	-394.847466	723.940335	1409.289371	-214.996699	716.284129	1268.964799	-215.611113	638.456153	1106.461305	-3.891349	721.593720	869.026188	-55.644489	590.065335	1094.646007	-480.871441	718.005701	883.069775	-430.245014	249.963676	1184.497760	-230.445769	396.236791	1176.423860	-369.061335	388.685444	1142.735213	-81.460571	419.368475	1113.003315	-345.376134	421.734305	1085.188469	-107.685903	283.802854	1201.766581	-165.510059	281.745528	1224.261426	-272.528751	328.860545	998.395482	-58.873403	346.613526	1065.323492	-431.009528	370.045723	869.834550	-69.232935	413.592045	794.251461	-78.916096	406.237750	705.944059	-90.578007	443.289726	801.617196	-99.414779	418.768373	615.093719	-121.995995	392.091157	593.337238	-213.748726	369.526985	527.769762	-83.094857	372.137801	438.388879	-91.637547	329.169391	361.345011	-87.427389	394.766290	434.557447	-125.163000	296.760842	264.390457	-83.349613	300.766795	270.913131	-158.767143	217.385640	262.737301	-118.782622	448.891613	131.941552	-128.831392	369.549257	155.282040	-62.945690	434.851726	960.437129	-440.772965	507.680924	916.563822	-434.998393	532.583157	938.273647	-415.995499	551.695667	837.945553	-441.110922	580.105013	742.409431	-426.298512	587.644940	723.275335	-328.291039	241.894470	599.380996	-415.634408	265.257553	596.244463	-343.769355	167.518836	627.986228	-374.932477	253.319927	475.665216	-431.184084	489.050209	702.827607	-442.984377	420.212289	651.627411	-428.431132	331.987037	641.155726	-423.582723	433.370853	628.676322	-399.484166	327.284756	423.271985	-359.128850	-64.317834	852.946589	-240.102216	21.234085	84.096954	-442.089385	21.202160	83.958588	-43.867508	
1753	8.7650	720.603228	1361.396128	-44.895982	719.332334	1335.851434	-399.370262	723.446683	1409.989260	-218.071615	716.282178	1269.427357	-219.431708	641.072001	1106.862177	-4.740913	721.961753	868.811376	-55.488640	586.223809	1093.661996	-480.985246	717.723861	884.300628	-430.462502	249.581082	1184.602667	-225.515620	393.732283	1178.638877	-367.458244	391.379085	1142.102174	-79.534356	418.197857	1114.771882	-344.242513	423.383679	1084.538968	-107.331422	284.601511	1201.275896	-161.205632	280.563930	1224.862175	-267.827542	330.382786	997.511172	-57.083489	344.140468	1067.789363	-428.504106	368.467167	869.569421	-68.185991	410.155451	792.624513	-77.983064	400.661426	704.954078	-89.304427	439.764766	799.451858	-98.763475	410.775805	613.532501	-120.755319	382.923566	592.076742	-213.098970	361.758209	526.289429	-82.157976	364.745611	436.832784	-90.849354	322.576440	359.818350	-86.280066	387.461734	433.205598	-124.265872	290.263746	262.981489	-82.871162	294.590622	269.077282	-158.387822	211.135461	262.957312	-118.777837	438.870858	125.967096	-128.729143	360.322568	151.470798	-62.921353	435.751143	965.461163	-438.381966	509.495234	923.285919	-433.733908	533.768299	945.297316	-414.196002	555.229024	845.605893	-440.066873	586.024074	750.395965	-425.921455	594.029331	730.723105	-327.465616	249.516189	602.668615	-415.539886	272.740570	600.022430	-343.650736	174.172757	630.041741	-375.086909	263.113957	479.485287	-431.323820	495.904926	709.306678	-442.248259	427.490433	657.401825	-428.036658	339.384891	645.963790	-423.376197	440.856696	634.486703	-399.137793	338.225546	428.609035	-359.347942	-64.371500	852.943879	-240.113492	21.240651	84.101263	-442.076050	21.196133	83.955046	-43.875454	
